<svg width="24" height="24" viewBox="0 0 25 24" fill="none" xmlns="http://www.w3.org/2000/svg">
<path fill-rule="evenodd" clip-rule="evenodd" d="M11.7166 4.54935C11.8898 4.63261 12 4.8078 12 5V19C12 19.1922 11.8898 19.3674 11.7166 19.4507C11.5434 19.5339 11.3377 19.5105 11.1877 19.3904L6.32461 15.5H2.5C2.22386 15.5 2 15.2761 2 15V9C2 8.72386 2.22386 8.5 2.5 8.5H6.32461L11.1877 4.60957C11.3377 4.4895 11.5434 4.46609 11.7166 4.54935ZM11 6.04032L6.81235 9.39044C6.72369 9.46136 6.61354 9.5 6.5 9.5H3V14.5H6.5C6.61354 14.5 6.72369 14.5386 6.81235 14.6096L11 17.9597V6.04032Z" fill="#FFFFFF"/>
<path fill-rule="evenodd" clip-rule="evenodd" d="M23.8536 8.64645C24.0488 8.84171 24.0488 9.15829 23.8536 9.35355L17.8536 15.3536C17.6583 15.5488 17.3417 15.5488 17.1464 15.3536C16.9512 15.1583 16.9512 14.8417 17.1464 14.6464L23.1464 8.64645C23.3417 8.45118 23.6583 8.45118 23.8536 8.64645Z" fill="#FFFFFF"/>
<path fill-rule="evenodd" clip-rule="evenodd" d="M17.1464 8.64645C17.3417 8.45118 17.6583 8.45118 17.8536 8.64645L23.8536 14.6464C24.0488 14.8417 24.0488 15.1583 23.8536 15.3536C23.6583 15.5488 23.3417 15.5488 23.1464 15.3536L17.1464 9.35355C16.9512 9.15829 16.9512 8.84171 17.1464 8.64645Z" fill="#FFFFFF"/>
</svg>